<svg width="149" height="24" viewBox="0 0 149 24" fill="none" xmlns="http://www.w3.org/2000/svg">
<path d="M38.1576 19.4696L34.228 6.52505C34.0431 5.97028 33.9969 5.92404 33.9969 6.43258C33.9969 6.94111 33.9969 7.54211 33.9969 8.7441C33.9969 9.9461 33.9969 10.8707 33.9969 11.5642C33.9969 13.7832 33.9968 15.5862 34.0893 17.0194C34.0893 17.9902 34.829 18.545 36.1235 18.6837C36.4008 18.6837 36.5395 18.7761 36.6782 18.9148C36.7707 19.0535 36.7707 19.1922 36.6782 19.2847C36.5858 19.3771 36.4008 19.4696 36.1235 19.4234C34.7828 19.3309 33.9506 19.2847 33.627 19.2847C33.3034 19.2847 33.1185 19.2847 32.61 19.3771C32.1014 19.4234 31.6391 19.4696 31.3155 19.4696C30.9919 19.4696 30.8532 19.4234 30.7145 19.2847C30.622 19.1922 30.5758 19.0535 30.7145 18.9148C30.8069 18.7761 30.9919 18.6837 31.2693 18.6837C31.8703 18.6374 32.2863 18.4525 32.5637 18.2214C32.8411 17.9902 32.9798 17.5741 32.9798 16.9731C32.9798 16.0948 33.026 14.2918 33.026 11.5179C33.026 8.7441 33.026 6.89488 32.9798 5.73912C32.9798 5.18435 32.7949 4.76828 32.5637 4.4909C32.3326 4.21352 31.8703 4.07482 31.2693 4.02859C30.9919 4.02859 30.8069 3.93613 30.7145 3.79744C30.622 3.65875 30.622 3.56629 30.7145 3.4276C30.8069 3.33513 31.0381 3.24268 31.3155 3.24268H35.1989C35.2913 3.24268 35.3838 3.24268 35.3838 3.38137L38.9898 15.4938C38.9898 15.6325 39.0822 15.6787 39.1284 15.6787C39.1747 15.6787 39.2209 15.6325 39.2671 15.4938L43.1043 3.38137C43.1043 3.28891 43.1967 3.24268 43.2892 3.24268H47.265C47.5424 3.24268 47.7273 3.2889 47.866 3.4276C48.0047 3.56629 48.0047 3.65875 47.866 3.79744C47.7736 3.93613 47.5886 4.02859 47.3113 4.02859C46.6178 4.12105 46.1093 4.25975 45.8319 4.4909C45.5545 4.72205 45.3696 5.13812 45.3696 5.73912C45.3696 6.94111 45.3233 8.83657 45.3233 11.5179C45.3233 14.1993 45.3233 16.0948 45.3696 16.9731C45.3696 17.5279 45.5545 17.944 45.8319 18.2214C46.1093 18.4525 46.6178 18.6374 47.3113 18.6837C47.5886 18.6837 47.7736 18.7761 47.866 18.9148C47.9585 19.0535 47.9585 19.146 47.866 19.2847C47.7736 19.4234 47.5424 19.4696 47.265 19.4696C46.8489 19.4696 46.3404 19.4696 45.6932 19.3771C45.046 19.3309 44.4912 19.2847 44.0751 19.2847C43.659 19.2847 42.7344 19.3309 41.3475 19.4234C41.0701 19.4234 40.8852 19.4234 40.7927 19.2847C40.7003 19.1922 40.7003 19.0535 40.7927 18.9148C40.8852 18.7761 41.0701 18.6837 41.3475 18.6837C42.642 18.545 43.3354 17.9902 43.3817 17.0194C43.4279 15.5862 43.4741 13.7832 43.4741 11.5642C43.4741 9.3451 43.4741 9.85364 43.4741 8.42049C43.4741 6.98735 43.4741 6.10897 43.4741 5.73912V5.23059C43.4279 5.23059 43.3354 5.41551 43.243 5.83159L39.2671 19.4234C39.1747 19.6545 39.036 19.7932 38.8511 19.7932C38.6662 19.7932 38.5274 19.6545 38.435 19.4234L38.1576 19.4696Z" fill="black"/>
<path d="M51.4256 19.8393C50.8246 19.8393 50.3623 19.6544 49.9924 19.2845C49.6226 18.9147 49.4377 18.4524 49.4377 17.8976C49.4377 17.3428 49.4377 17.5278 49.4839 17.3428C49.4839 17.1579 49.6226 16.973 49.7151 16.7881C49.8075 16.6031 49.9 16.4645 49.9924 16.3258C50.0849 16.1871 50.2236 16.0484 50.4085 15.8635C50.5934 15.6785 50.7784 15.5398 50.8708 15.4474C50.9633 15.3549 51.1482 15.2162 51.4256 15.0313C51.6567 14.8464 51.8417 14.7539 51.9803 14.6615C52.119 14.569 52.304 14.4765 52.5351 14.2916C52.7663 14.1067 52.9512 14.0142 53.0436 13.968C53.6909 13.5519 54.107 13.2283 54.3381 13.0434C54.5693 12.8122 54.6617 12.5811 54.6617 12.3037V9.89972C54.6617 9.34495 54.523 8.92888 54.2456 8.60527C53.9683 8.28165 53.5984 8.14296 53.1361 8.14296C52.6738 8.14296 52.2577 8.32788 51.9341 8.65149C51.6105 9.02134 51.3793 9.48365 51.2869 10.0846C51.102 11.3329 50.501 11.9801 49.5301 11.9801C48.5593 11.9801 49.0216 11.8414 48.9291 11.6103C48.8367 11.3791 48.8367 11.0555 49.0216 10.7319C49.4839 9.76103 50.1311 8.92888 51.102 8.23542C52.0266 7.54196 53.0437 7.17212 54.107 7.17212C55.1703 7.17212 55.4476 7.40327 55.8637 7.86558C56.2798 8.32788 56.5109 8.92888 56.5109 9.7148V16.9268C56.5109 17.4353 56.6959 17.8514 57.0195 18.1288C57.3431 18.4061 57.7592 18.4524 58.2677 18.3137C58.5451 18.2212 58.73 18.3137 58.7762 18.4061C58.8225 18.5448 58.7762 18.7297 58.5451 18.9147C58.0828 19.3307 57.5742 19.5157 57.0195 19.5157C56.4647 19.5157 55.5863 19.1921 54.9391 18.4986C54.8004 18.3599 54.708 18.2674 54.5693 18.2674C54.4306 18.2674 54.3843 18.2674 54.2919 18.4061C54.2919 18.4061 54.1994 18.4986 54.0145 18.6373C53.8296 18.776 53.7371 18.8684 53.6909 18.9147C53.6909 18.9147 53.5522 19.0071 53.3673 19.1458C53.1823 19.2845 53.0899 19.3307 52.9974 19.377C52.905 19.377 52.8125 19.4694 52.6276 19.5619C52.4889 19.6544 52.3502 19.7006 52.2115 19.7468C52.119 19.7468 51.9804 19.793 51.7954 19.8393C51.6567 19.8393 51.518 19.8393 51.3794 19.8393H51.4256ZM52.7663 18.0825C53.3673 18.0825 53.8296 17.9438 54.1994 17.6664C54.523 17.3891 54.708 17.0192 54.708 16.5569V14.4303C54.708 14.1529 54.6155 14.0605 54.4768 14.0605C54.3381 14.0605 53.922 14.1992 53.4135 14.5228C52.0728 15.3549 51.4256 16.1871 51.4256 17.0192C51.4256 17.8514 51.5643 17.574 51.7954 17.7589C52.0266 17.9438 52.3502 18.0363 52.7663 18.0363V18.0825Z" fill="black"/>
<path d="M60.3019 7.95813C61.3652 7.77321 62.1511 7.54205 62.5672 7.26467C62.7521 7.12598 62.8908 7.12598 63.0295 7.17221C63.1682 7.21844 63.2144 7.40336 63.2144 7.58828C63.1219 8.46666 63.122 9.39128 63.122 10.4546C63.122 11.5179 63.1219 10.547 63.2144 10.547C63.2144 10.547 63.3069 10.5008 63.3069 10.4083C63.7692 9.39127 64.2777 8.55913 64.8787 8.00436C65.4797 7.44959 66.1269 7.12598 66.7279 7.12598C67.3289 7.12598 67.2827 7.21844 67.4676 7.4496C67.6526 7.68075 67.6987 7.9119 67.6525 8.28174C67.5601 8.9752 67.0515 9.29881 66.2194 9.34504C65.2948 9.34504 64.5551 9.76112 64.0466 10.4546C63.538 11.148 63.3069 12.1651 63.3069 13.4596V17.0655C63.3069 18.0364 64.0003 18.5911 65.341 18.7298C65.6184 18.7298 65.7571 18.8223 65.8958 18.961C65.9882 19.0997 65.9882 19.2384 65.8958 19.3308C65.8033 19.4233 65.6184 19.5158 65.341 19.4695C64.0003 19.3771 63.0295 19.3308 62.5209 19.3308C62.0124 19.3308 61.7813 19.3308 61.2265 19.4233C60.6255 19.4695 60.2094 19.5158 59.8858 19.5158C59.5622 19.5158 59.4235 19.4695 59.2848 19.3308C59.1923 19.2384 59.1461 19.0997 59.2848 18.961C59.3773 18.8223 59.5622 18.7298 59.8396 18.7298C60.4406 18.6836 60.8566 18.4987 61.134 18.2675C61.4114 18.0364 61.5501 17.6203 61.5501 17.0193C61.5501 16.2334 61.5963 15.0776 61.5963 13.552C61.5963 12.0264 61.5501 10.5933 61.4576 9.76112C61.3652 9.16012 60.9953 8.83651 60.3019 8.79028C60.0707 8.79028 59.8858 8.69782 59.7934 8.60536C59.7009 8.46667 59.7009 8.3742 59.7934 8.23551C59.8858 8.09682 60.0707 8.05059 60.3019 8.00436V7.95813Z" fill="black"/>
<path d="M81.2905 18.6835C81.5679 18.6835 81.7066 18.7759 81.8453 18.9146C81.9377 19.0533 81.9377 19.192 81.8453 19.2845C81.7528 19.3769 81.5679 19.4694 81.2905 19.4232C79.9498 19.3307 78.979 19.2845 78.4704 19.2845C77.9619 19.2845 77.777 19.2845 77.3147 19.3769C76.8061 19.4232 76.4363 19.4694 76.1127 19.4694C75.7891 19.4694 75.6504 19.4232 75.5117 19.2845C75.4192 19.192 75.373 19.0533 75.5117 18.9146C75.6041 18.7759 75.7891 18.6835 76.0665 18.6835C76.3901 18.6835 76.575 18.591 76.7137 18.4986C76.8062 18.4061 76.8062 18.2212 76.7137 17.99C76.6212 17.7589 76.4363 17.4353 76.1589 17.0192C75.8353 16.5569 74.9107 15.4473 73.4313 13.7368C73.2464 13.5057 73.0615 13.5057 72.8766 13.7368L72.2755 14.6614C72.1368 14.8926 72.0444 15.2162 72.0444 15.6323V17.0192C72.0444 17.5277 72.1831 17.9438 72.4605 18.2212C72.7378 18.4986 73.2002 18.6835 73.8474 18.7297C74.1248 18.7297 74.2635 18.8222 74.4022 18.9609C74.4946 19.0996 74.4946 19.2382 74.4022 19.3307C74.3097 19.4232 74.1248 19.5156 73.8474 19.4694C72.5067 19.3769 71.6283 19.3307 71.2585 19.3307C70.8886 19.3307 70.5188 19.3307 69.964 19.4232C69.363 19.4694 68.947 19.5156 68.6234 19.5156C68.2998 19.5156 68.161 19.4694 68.0223 19.3307C67.9299 19.2382 67.8837 19.0996 68.0223 18.9609C68.1148 18.8222 68.2997 18.7297 68.5771 18.7297C69.1781 18.6835 69.5942 18.4986 69.8716 18.2674C70.149 18.0363 70.2877 17.6202 70.2877 17.0192C70.2877 16.2333 70.3339 14.4765 70.3339 11.7489C70.3339 9.0213 70.2876 6.57109 70.1952 5.8314C70.1489 5.2304 69.7329 4.90679 68.9932 4.86055C68.762 4.86055 68.6233 4.7681 68.4847 4.67564C68.3922 4.53694 68.3922 4.44448 68.4847 4.30579C68.5771 4.1671 68.762 4.12087 68.9932 4.07464C70.0565 3.88972 70.8424 3.65856 71.2585 3.38118C71.4434 3.24249 71.6283 3.24249 71.767 3.33495C71.9519 3.42741 71.9982 3.5661 71.9982 3.75103C71.9982 4.21333 71.9519 5.73893 71.9519 8.4203C71.9519 11.0554 71.9519 12.6273 71.9519 13.0896C71.9519 13.3207 71.952 13.4132 72.0907 13.4594C72.1831 13.4594 72.2756 13.4594 72.4142 13.2745C72.6454 12.9047 73.2464 11.9801 74.2172 10.5007C75.1419 9.11376 75.2343 8.42031 74.4946 8.37408C74.0785 8.37408 73.8474 8.23538 73.7549 8.00423C73.7087 7.81931 73.7549 7.72685 74.0785 7.68062H74.3097C75.7428 7.77308 77.1298 7.77308 78.4242 7.68062C78.6091 7.68062 78.7478 7.68061 78.8865 7.81931C78.979 7.91177 78.979 8.00423 78.8865 8.14292C78.7941 8.28162 78.7016 8.32785 78.4704 8.37408C77.6383 8.559 76.9448 8.88261 76.3901 9.29869C75.8353 9.71476 75.1418 10.5469 74.2635 11.8414C74.1248 12.0725 74.1248 12.3037 74.2635 12.4886C74.7258 12.9971 75.2805 13.6906 75.9278 14.569C76.575 15.4011 76.9911 15.9096 77.176 16.1408C77.6845 16.7418 78.3318 17.3428 79.0715 17.9438C79.8111 18.5448 80.5508 18.8684 81.198 18.9609L81.2905 18.6835Z" fill="black"/>
<path d="M85.8672 19.8392C84.3878 19.8392 83.1859 19.3307 82.3075 18.2674C81.4291 17.2041 80.9668 15.8171 80.9668 14.0604C80.9668 12.3036 81.4291 10.4544 82.3999 9.15994C83.3245 7.86549 84.5266 7.21826 85.9597 7.21826C87.3929 7.21826 88.5486 7.77302 89.4732 8.88256C90.2129 9.71471 90.5365 10.5469 90.4441 11.2865C90.3516 11.98 89.8893 12.3498 89.0571 12.3498H83.4633C83.001 12.3498 82.816 12.6272 82.816 13.2282C82.816 14.7076 83.1396 15.9558 83.7868 16.8804C84.4341 17.805 85.22 18.2674 86.2371 18.2674C87.624 18.2674 88.7335 17.7126 89.5194 16.6493C89.7044 16.3719 89.8893 16.2332 90.0742 16.187C90.2591 16.187 90.3516 16.187 90.3516 16.4181C90.3516 16.6031 90.2592 16.8342 90.1205 17.1578C89.6582 17.99 89.0109 18.6372 88.2712 19.1457C87.4853 19.6543 86.6994 19.8854 85.9134 19.8854L85.8672 19.8392ZM83.6482 11.5177C85.7748 11.5177 87.1155 11.5177 87.624 11.4252C88.1325 11.3328 88.4099 11.1016 88.4099 10.7318C88.4099 9.99209 88.1787 9.39109 87.7164 8.88256C87.2541 8.42025 86.6531 8.1891 85.9134 8.1891C85.1738 8.1891 84.5265 8.42025 84.018 8.88256C83.5095 9.34486 83.1859 10.0383 83.0472 10.9167C83.0472 11.1941 83.0472 11.3328 83.0934 11.4252C83.1859 11.5177 83.3708 11.5639 83.6482 11.5639V11.5177Z" fill="black"/>
<path d="M95.992 19.8393C95.2523 19.8393 94.6513 19.6081 94.189 19.192C93.7267 18.776 93.5418 18.175 93.5418 17.4353V9.29871C93.5418 9.02133 93.4493 8.88263 93.2182 8.79017C93.0333 8.69771 92.6172 8.69771 92.0624 8.79017C91.8313 8.79017 91.6464 8.79018 91.5539 8.60525C91.4614 8.46656 91.4152 8.32787 91.5077 8.18918C91.6001 8.05048 91.7388 7.91179 91.97 7.86556C92.9871 7.63441 93.6805 7.35703 94.0504 6.98719C94.374 6.61734 94.6513 5.87765 94.79 4.72189C94.79 4.4445 94.9287 4.25958 95.0674 4.16712C95.2061 4.07466 95.3448 4.02843 95.4373 4.16712C95.5297 4.25958 95.6221 4.4445 95.6221 4.72189V6.80226C95.6221 7.03341 95.6684 7.21834 95.7609 7.40326C95.8533 7.54195 95.992 7.63441 96.1769 7.63441H98.8121C99.1357 7.63441 99.2281 7.7731 99.0432 8.09672C98.8583 8.46656 98.5809 8.69772 98.2111 8.83641C98.1186 8.83641 98.0261 8.83641 97.9337 8.83641H96.1307C95.7147 8.83641 95.5297 9.02133 95.5297 9.39117V16.7418C95.5297 18.1287 96.0383 18.8222 97.0553 18.8222C98.0724 18.8222 98.2573 18.6373 98.9508 18.2212C99.1357 18.1287 99.2744 18.1287 99.4131 18.175C99.5518 18.175 99.598 18.3137 99.598 18.4523C99.598 18.591 99.5055 18.7297 99.3206 18.8222C98.1186 19.5619 97.0091 19.978 96.0382 19.978L95.992 19.8393Z" fill="black"/>
<path d="M105.007 19.8392C103.527 19.8392 102.326 19.3307 101.447 18.2674C100.569 17.2041 100.106 15.8171 100.106 14.0604C100.106 12.3036 100.569 10.4544 101.54 9.15994C102.464 7.86549 103.666 7.21826 105.099 7.21826C106.532 7.21826 107.688 7.77302 108.613 8.88256C109.353 9.71471 109.676 10.5469 109.584 11.2865C109.491 11.98 109.029 12.3498 108.197 12.3498H102.603C102.141 12.3498 101.956 12.6272 101.956 13.2282C101.956 14.7076 102.279 15.9558 102.926 16.8804C103.574 17.805 104.36 18.2674 105.377 18.2674C106.764 18.2674 107.873 17.7126 108.659 16.6493C108.844 16.3719 109.029 16.2332 109.214 16.187C109.399 16.187 109.491 16.187 109.491 16.4181C109.491 16.6031 109.399 16.8342 109.26 17.1578C108.798 17.99 108.151 18.6372 107.411 19.1457C106.625 19.6543 105.839 19.8854 105.053 19.8854L105.007 19.8392ZM102.742 11.5177C104.868 11.5177 106.209 11.5177 106.717 11.4252C107.226 11.3328 107.503 11.1016 107.503 10.7318C107.503 9.99209 107.272 9.39109 106.81 8.88256C106.348 8.42025 105.747 8.1891 105.007 8.1891C104.267 8.1891 103.62 8.42025 103.111 8.88256C102.603 9.34486 102.279 10.0383 102.141 10.9167C102.141 11.1941 102.141 11.3328 102.187 11.4252C102.279 11.5177 102.464 11.5639 102.742 11.5639V11.5177Z" fill="black"/>
<path d="M114.438 11.9339C114.438 12.1188 114.438 13.7831 114.53 17.0193C114.53 17.9901 115.224 18.5449 116.564 18.6836C116.842 18.6836 116.98 18.776 117.119 18.9147C117.212 19.0534 117.212 19.1921 117.119 19.2846C117.027 19.377 116.842 19.4695 116.564 19.4233C115.224 19.3308 114.253 19.2846 113.744 19.2846C113.236 19.2846 113.005 19.2846 112.45 19.377C111.849 19.4233 111.433 19.4695 111.109 19.4695C110.786 19.4695 110.647 19.4233 110.508 19.2846C110.416 19.1921 110.369 19.0534 110.508 18.9147C110.601 18.776 110.786 18.6836 111.063 18.6836C111.664 18.6373 112.08 18.4524 112.357 18.2213C112.635 17.9901 112.773 17.574 112.773 16.973C112.773 16.1871 112.82 14.4304 112.82 11.7028C112.82 8.97516 112.773 6.52494 112.681 5.78525C112.635 5.18426 112.219 4.86064 111.479 4.81441C111.248 4.81441 111.109 4.72195 110.97 4.62949C110.878 4.4908 110.878 4.39834 110.97 4.25964C111.063 4.12095 111.248 4.07472 111.479 4.02849C112.542 3.84357 113.328 3.61242 113.744 3.33503C113.929 3.19634 114.114 3.19635 114.253 3.28881C114.438 3.38127 114.484 3.51996 114.484 3.70488C114.484 4.35211 114.438 7.12594 114.438 12.0264V11.9339Z" fill="black"/>
<path d="M122.667 19.8394C121.326 19.8394 120.217 19.3308 119.246 18.2675C118.275 17.2042 117.812 15.6786 117.812 13.6445C117.812 11.6103 118.321 10.2697 119.384 9.02143C120.401 7.77321 121.696 7.12598 123.222 7.12598C124.747 7.12598 125.81 7.77321 126.735 9.02143C127.66 10.3159 128.122 11.7028 128.122 13.2746C128.122 14.8465 127.613 16.6495 126.55 17.8977C125.533 19.1459 124.239 19.7931 122.713 19.7931L122.667 19.8394ZM123.453 18.4987C124.377 18.4987 125.071 18.1751 125.625 17.5741C126.18 16.9731 126.458 16.1409 126.458 15.1239C126.458 13.4596 126.042 11.9802 125.256 10.5933C124.47 9.20635 123.406 8.55913 122.158 8.55913C120.91 8.55913 120.54 8.92897 120.078 9.66865C119.616 10.4083 119.384 11.4716 119.384 12.8586C119.384 14.3379 119.8 15.6324 120.633 16.7882C121.465 17.9439 122.389 18.4987 123.406 18.4987H123.453Z" fill="black"/>
<path d="M130.202 7.95813C131.266 7.77321 132.052 7.54205 132.468 7.26467C132.653 7.12598 132.791 7.12598 132.93 7.17221C133.069 7.21844 133.115 7.40336 133.115 7.58828C133.023 8.46666 133.023 9.39128 133.023 10.4546C133.023 11.5179 133.023 10.547 133.115 10.547C133.115 10.547 133.207 10.5008 133.207 10.4083C133.67 9.39127 134.178 8.55913 134.779 8.00436C135.38 7.44959 136.028 7.12598 136.629 7.12598C137.23 7.12598 137.183 7.21844 137.368 7.4496C137.553 7.68075 137.599 7.9119 137.553 8.28174C137.461 8.9752 136.952 9.29881 136.12 9.34504C135.195 9.34504 134.456 9.76112 133.947 10.4546C133.439 11.148 133.207 12.1651 133.207 13.4596V17.0655C133.207 18.0364 133.901 18.5911 135.242 18.7298C135.519 18.7298 135.658 18.8223 135.796 18.961C135.889 19.0997 135.889 19.2384 135.796 19.3308C135.704 19.4233 135.519 19.5158 135.242 19.4695C133.901 19.3771 132.93 19.3308 132.422 19.3308C131.913 19.3308 131.682 19.3308 131.127 19.4233C130.526 19.4695 130.11 19.5158 129.786 19.5158C129.463 19.5158 129.324 19.4695 129.185 19.3308C129.093 19.2384 129.047 19.0997 129.185 18.961C129.278 18.8223 129.463 18.7298 129.74 18.7298C130.341 18.6836 130.757 18.4987 131.035 18.2675C131.312 18.0364 131.451 17.6203 131.451 17.0193C131.451 16.2334 131.497 15.0776 131.497 13.552C131.497 12.0264 131.451 10.5933 131.358 9.76112C131.266 9.16012 130.896 8.83651 130.202 8.79028C129.971 8.79028 129.786 8.69782 129.694 8.60536C129.601 8.46667 129.601 8.3742 129.694 8.23551C129.786 8.09682 129.971 8.05059 130.202 8.00436V7.95813Z" fill="black"/>
<path d="M143.101 19.8394C141.76 19.8394 140.651 19.3308 139.68 18.2675C138.709 17.2042 138.247 15.6786 138.247 13.6445C138.247 11.6103 138.755 10.2697 139.818 9.02143C140.836 7.77321 142.13 7.12598 143.656 7.12598C145.181 7.12598 146.244 7.77321 147.169 9.02143C148.094 10.3159 148.556 11.7028 148.556 13.2746C148.556 14.8465 148.047 16.6495 146.984 17.8977C145.967 19.1459 144.673 19.7931 143.147 19.7931L143.101 19.8394ZM143.887 18.4987C144.811 18.4987 145.505 18.1751 146.06 17.5741C146.614 16.9731 146.892 16.1409 146.892 15.1239C146.892 13.4596 146.476 11.9802 145.69 10.5933C144.904 9.20635 143.84 8.55913 142.592 8.55913C141.344 8.55913 140.974 8.92897 140.512 9.66865C140.05 10.4083 139.818 11.4716 139.818 12.8586C139.818 14.3379 140.234 15.6324 141.067 16.7882C141.899 17.9439 142.823 18.4987 143.84 18.4987H143.887Z" fill="black"/>
<path d="M14.2563 7.07963H14.6724C14.7649 6.52487 14.7186 6.10879 15.1347 5.69272C15.5508 5.27664 18.2321 3.28873 18.602 3.15004C19.9427 2.59527 21.1909 3.79726 20.7286 5.18418L17.0302 10.362C17.5849 10.5469 17.9085 9.85346 18.5558 9.80723C19.203 9.761 22.1618 10.2695 22.7165 10.4545C24.1959 10.8705 24.3346 12.9509 22.8552 13.4594C21.3758 13.968 18.7869 14.0142 17.1226 14.2916C15.4583 14.569 17.5849 14.8464 17.7698 14.9388C18.1397 15.1237 20.2663 17.8976 20.5437 18.4061C21.3758 19.9317 20.2663 21.2262 18.6482 20.7639L13.6553 17.0654C13.2393 17.574 14.0714 17.99 14.0714 18.6835C14.0714 19.3769 13.6553 22.2895 13.4704 22.8905C13.0081 24.3698 10.974 24.3698 10.4654 22.8905L9.63329 16.8805H9.26345L8.80114 18.2212C7.87653 18.6835 5.84239 20.7176 5.01024 20.9026C3.66955 21.1337 2.79117 20.1166 3.16102 18.8222C3.4384 18.0825 6.95192 14.0142 6.85946 13.7368C6.767 13.2283 5.98107 14.0142 5.74991 14.0604C5.24138 14.1991 1.49672 13.6906 0.941956 13.5057C-0.49119 12.9509 -0.213829 10.7781 1.26555 10.5007L7.18308 9.62231L7.04436 9.25246C6.62829 9.20623 6.11977 9.16 5.79616 8.88262C5.47255 8.60524 3.53084 5.9701 3.34592 5.55402C2.56 4.07465 3.85448 2.59527 5.33386 3.2425C6.81323 3.88972 8.61622 5.9701 10.0956 6.75602C11.575 7.54194 10.3267 6.89471 10.4654 6.84848C10.4654 6.20125 9.91066 6.01633 9.91066 5.32287C9.91066 4.62941 10.3267 1.76312 10.5117 1.11589C10.974 -0.409716 13.1468 -0.36348 13.5629 1.20836L14.395 7.17209L14.2563 7.07963Z" fill="black"/>
</svg>
